<svg xmlns="http://www.w3.org/2000/svg" width="274.321" height="57.97" viewBox="0 0 274.321 57.97"><g transform="translate(0 -26.629)"><path d="M55.9,70.127v-55.7H66.63v45l16.951,0v10.7Z" transform="translate(51.685 13.338)" fill="#09090c"/><path d="M73.638,70.127v-55.7h26.541V24.466H85.423V37.125H97.648V47.252H85.423V59.43H102.1v10.7Z" transform="translate(68.08 13.338)" fill="#09090c"/><path d="M127.687,70.126,113.543,49.434a122.294,122.294,0,0,1-6.636-10.562l-.175.087c.175,3.229.264,7.332.264,10.3V70.126H92.416v-55.7H106.3l11.786,17.81c1.746,2.706,4.1,6.372,5.5,9.078h.175c-.175-2.881-.439-6.024-.439-8.9V14.427h14.755v55.7Z" transform="translate(85.441 13.337)" fill="#09090c"/><path d="M140.126,71.807c-6.636,0-13.356-1.834-17.113-4.016l-1.659-16.5c4.977,3.231,11.264,5.5,16.5,5.5,3.493,0,5.677-.96,5.677-2.794,0-1.484-1.135-2.182-4.8-2.968-12.134-2.619-17.111-10.04-17.111-18.858,0-10.825,8.12-18.333,20.515-18.333A42.427,42.427,0,0,1,158.2,16.98l-3.231,14.667a31.793,31.793,0,0,0-10.475-2.533c-3.843,0-4.977.96-4.977,2.358,0,1.57,1.657,2.009,4.538,2.619,11.786,2.619,18.073,9.255,18.073,19.034,0,11.7-7.421,18.683-22,18.683" transform="translate(112.194 12.792)" fill="#09090c"/><path d="M16.763,20.656v49.5H9.692v-49.5H0v-6.2H26.454v6.2Z" transform="translate(0 13.365)" fill="#09090c"/><path d="M37.866,70.157V45.275H23.809V70.157H16.737v-55.7h7.073V39.076H37.866V14.458h7.073v55.7Z" transform="translate(15.474 13.366)" fill="#09090c"/><path d="M35.969,70.157v-55.7H55v6.2H43.041V39.076H53.255v6.2H43.041V63.958H56.486v6.2Z" transform="translate(33.254 13.366)" fill="#09090c"/></g></svg>