<svg xmlns="http://www.w3.org/2000/svg" xmlns:xlink="http://www.w3.org/1999/xlink" width="543.324" height="477.7" viewBox="0 0 543.324 477.7"><defs><clipPath id="a"><rect width="543.324" height="477.7" fill="none" stroke="#707070" stroke-width="2"/></clipPath></defs><g transform="translate(0 0)" opacity="0.75"><g transform="translate(0 0)" clip-path="url(#a)"><path d="M430.925,320.1C530.662,204.715,532.81,70.609,435.709,20.567S179.046,23.492,79.3,138.877-22.576,388.368,74.517,438.41,331.188,435.486,430.925,320.1Z" transform="translate(22.328 12.386)" fill="none" stroke="#b6b7b3" stroke-miterlimit="10" stroke-width="2"/><path d="M490.65,227.985C542.278,102.224,479.348,1.247,350.075,2.453S74.162,106.594,22.534,232.356,33.836,459.094,163.1,457.888,439.022,353.747,490.65,227.985Z" transform="translate(32.565 17.735)" fill="none" stroke="#b6b7b3" stroke-miterlimit="10" stroke-width="2"/><path d="M429.513,319.372C529.25,203.987,531.4,69.881,434.3,19.839S177.634,22.764,77.889,138.149-23.988,387.64,73.105,437.682,329.776,434.758,429.513,319.372Z" transform="translate(12.075 7.1)" fill="none" stroke="#b6b7b3" stroke-miterlimit="10" stroke-width="2"/><path d="M428.1,318.644c99.737-115.385,101.885-249.491,4.784-299.533S176.221,22.036,76.476,137.421-25.4,386.912,71.692,436.954,328.363,434.03,428.1,318.644Z" transform="translate(1.814 1.813)" fill="none" stroke="#b6b7b3" stroke-miterlimit="10" stroke-width="2"/></g></g></svg>