<svg xmlns="http://www.w3.org/2000/svg" xmlns:xlink="http://www.w3.org/1999/xlink" width="205.776" height="83.454" viewBox="0 0 205.776 83.454"><defs><clipPath id="a"><path d="M0,0H205.776V83.454H0Z" fill="none" stroke="#707070" stroke-width="1"/></clipPath></defs><g clip-path="url(#a)"><path d="M129.23,14a23.191,23.191,0,0,0-10-8.206c-1.013-.5-2.373-1.24-2.645-1.38-.413-.214-1.8-.954-2.073-1.094-17.077-8.8-45.213.51-62.716,20.759C41.568,35.906,36.747,49.6,38.893,60.7a23.285,23.285,0,0,0,9.56,14.721A50.148,50.148,0,0,0,60.184,81.45a40.59,40.59,0,0,0,12,2h.4c22.685-.214,48.508-18.334,57.565-40.4,4.566-11.123,4.241-21.444-.915-29.057M49.194,72.2c-5.018-7.409-5.317-17.487-.845-28.379C57.305,22,82.83,4.081,105.251,3.872h.394a38.377,38.377,0,0,1,8.93,1.081,12.873,12.873,0,0,1,3.984,1.939,21.757,21.757,0,0,1,7.414,12.831c2.106,10.889-2.656,24.354-12.739,36.022C97.887,73.494,74.337,82.7,57.47,78.585a11.288,11.288,0,0,1-5.011-2.6A19.8,19.8,0,0,1,49.194,72.2M105.246,3.15c-22.685.212-48.509,18.334-57.565,40.4-4.566,11.123-4.243,21.444.915,29.059a22.3,22.3,0,0,0,1.663,2.144,21.866,21.866,0,0,1-6.579-12.08c-2.106-10.889,2.655-24.356,12.74-36.02C69.308,11.738,88,2.811,103.636,2.811a36.516,36.516,0,0,1,6.882.641,39.55,39.55,0,0,0-5.272-.3M65.987,80.289c15.861,0,34.771-9.011,47.8-24.076,10.225-11.832,15.048-25.523,12.9-36.628a22.831,22.831,0,0,0-5.276-10.92,21.866,21.866,0,0,1,6.606,12.108c2.106,10.889-2.656,24.354-12.739,36.019C100.405,74,77.825,83.223,61.1,79.976a38.682,38.682,0,0,0,4.885.313M55.873,26.178C45.647,38.007,40.823,51.7,42.971,62.806a22.844,22.844,0,0,0,5.275,10.918,21.87,21.87,0,0,1-6.6-12.1C39.536,50.73,44.3,37.263,54.381,25.6,67.271,10.688,85.957,1.759,101.6,1.759a36.5,36.5,0,0,1,6.928.651C91.818.293,70.259,9.535,55.873,26.178M68.029,81.342c15.86,0,34.771-9.013,47.793-24.078,10.225-11.829,15.048-25.522,12.9-36.628a22.859,22.859,0,0,0-5.276-10.918,21.856,21.856,0,0,1,6.6,12.106c2.106,10.889-2.655,24.356-12.739,36.02-14.877,17.208-37.471,26.443-54.194,23.18a38.764,38.764,0,0,0,4.91.318M39.6,60.565C37.5,49.676,42.26,36.212,52.342,24.548,65.231,9.637,83.917.708,99.556.708a36.528,36.528,0,0,1,6.908.647C89.757-.752,68.212,8.495,53.835,25.128c-10.227,11.829-15.05,25.522-12.9,36.628a22.839,22.839,0,0,0,5.279,10.923A21.865,21.865,0,0,1,39.6,60.565m89.875-17.783C120.521,64.6,94.994,82.52,72.575,82.731h-.394a36.908,36.908,0,0,1-7.246-.687,38.544,38.544,0,0,0,5.134.346c15.858,0,34.768-9.011,47.792-24.077,10.225-11.831,15.048-25.522,12.9-36.626a22.815,22.815,0,0,0-5.4-11.064,21.569,21.569,0,0,1,3.27,3.778c5.018,7.409,5.317,17.487.845,28.38" transform="translate(17.032 -0.001)" fill="#ffd800"/><path d="M55.9,56.209V14.427H63.95V48.184H76.665v8.024Z" transform="translate(24.801 6.4)" fill="#e7e7e7"/><path d="M73.638,56.209V14.427H93.547v7.53H82.479v9.5h9.17v7.6h-9.17v9.135H94.988v8.024Z" transform="translate(32.668 6.4)" fill="#e7e7e7"/><path d="M118.873,56.209,108.264,40.687a91.735,91.735,0,0,1-4.978-7.923l-.131.065c.131,2.422.2,5.5.2,7.726V56.209H92.416V14.427h10.413l8.841,13.359c1.309,2.03,3.078,4.78,4.126,6.81h.131c-.131-2.161-.329-4.519-.329-6.68V14.427h11.068V56.209Z" transform="translate(40.999 6.4)" fill="#e7e7e7"/><path d="M135.435,57.322A27.9,27.9,0,0,1,122.6,54.309l-1.244-12.378c3.733,2.424,8.45,4.126,12.378,4.126,2.62,0,4.259-.72,4.259-2.1,0-1.113-.852-1.637-3.6-2.226-9.1-1.965-12.835-7.531-12.835-14.146,0-8.12,6.091-13.752,15.389-13.752a31.826,31.826,0,0,1,12.051,2.357l-2.424,11a23.849,23.849,0,0,0-7.858-1.9c-2.883,0-3.733.72-3.733,1.768,0,1.178,1.243,1.507,3.4,1.965,8.841,1.965,13.557,6.942,13.557,14.278,0,8.774-5.567,14.015-16.5,14.015" transform="translate(53.837 6.138)" fill="#e7e7e7"/><path d="M12.574,19.107V56.24H7.27V19.107H0v-4.65H19.844v4.65Z" transform="translate(0 6.413)" fill="#e7e7e7"/><path d="M32.586,56.239V37.575H22.042V56.239H16.737V14.458h5.305V32.925H32.586V14.458h5.305V56.239Z" transform="translate(7.425 6.414)" fill="#e7e7e7"/><path d="M35.969,56.239V14.458H50.246v4.649H41.274V32.925h7.661v4.65H41.274V51.59H51.359v4.65Z" transform="translate(15.957 6.414)" fill="#e7e7e7"/></g></svg>