<svg xmlns="http://www.w3.org/2000/svg" width="19.6" height="17.422" viewBox="0 0 19.6 17.422"><path d="M9.8,9.064A21.841,21.841,0,0,0,4.248,2.535C2.1,1.015,1.275,1.278.737,1.523.114,1.8,0,2.76,0,3.322A49.828,49.828,0,0,0,.51,8.613c.666,2.234,3.032,2.989,5.213,2.747.111-.016.225-.032.339-.046-.113.018-.225.033-.339.046C2.528,11.834-.31,13,3.411,17.14c4.094,4.238,5.61-.909,6.389-3.518.778,2.609,1.674,7.571,6.315,3.518,3.485-3.518.957-5.307-2.238-5.78q-.17-.019-.339-.046c.114.014.228.029.339.046,2.18.243,4.547-.513,5.213-2.747a49.835,49.835,0,0,0,.51-5.29c0-.563-.114-1.52-.737-1.8-.538-.243-1.359-.506-3.512,1.013A21.885,21.885,0,0,0,9.8,9.064Z" transform="translate(0 -1.334)" fill="#09090c"/></svg>