<svg xmlns="http://www.w3.org/2000/svg" width="19.046" height="14.821" viewBox="0 0 19.046 14.821"><path d="M35.535,28.624a4.557,4.557,0,0,0-5.871-6.93l-.05.035a1.007,1.007,0,0,0,1.172,1.639l.05-.035A2.54,2.54,0,0,1,34.108,27.2l-3.536,3.542a2.54,2.54,0,0,1-3.864-3.271l.035-.05A1.007,1.007,0,0,0,25.1,26.245l-.035.05A4.554,4.554,0,0,0,32,32.163ZM19.16,27.887a4.557,4.557,0,0,0,5.871,6.93l.05-.035a1.007,1.007,0,1,0-1.172-1.639l-.05.035a2.541,2.541,0,0,1-3.271-3.867l3.536-3.539a2.541,2.541,0,0,1,3.864,3.274l-.035.05a1.007,1.007,0,1,0,1.639,1.172l.035-.05A4.555,4.555,0,0,0,22.7,24.348Z" transform="translate(-17.825 -20.845)"/></svg>