<svg xmlns="http://www.w3.org/2000/svg" width="46.205" height="46.205" viewBox="0 0 46.205 46.205"><path d="M10.281,0A10.257,10.257,0,0,0,0,10.281V35.924A10.257,10.257,0,0,0,10.281,46.2H35.924A10.257,10.257,0,0,0,46.2,35.924V10.281A10.257,10.257,0,0,0,35.924,0ZM22.843,4.944A15.825,15.825,0,0,1,34.5,9.924,15.958,15.958,0,0,1,38.86,18.38a22.65,22.65,0,0,1,.013,5.514,16.376,16.376,0,0,1-6.238,10.2,19.289,19.289,0,0,1-4.5,2.428c-.169,0-.185-.175-.108-.886.139-1.14.277-1.377.924-1.648a15.052,15.052,0,0,0,3.866-2.763,14.716,14.716,0,0,0,3.866-6.808,18.084,18.084,0,0,0-.092-6.746,14.367,14.367,0,0,0-10.827-10.3,18.164,18.164,0,0,0-5.776,0A14.48,14.48,0,0,0,9.072,18.006a19.54,19.54,0,0,0,0,6.422,14.75,14.75,0,0,0,6.145,8.686,13.307,13.307,0,0,0,1.586.909c.647.277.785.508.909,1.648.077.693.058.893-.108.893a12.647,12.647,0,0,1-1.725-.739l-.077-.058A16.083,16.083,0,0,1,6.885,24.194a21.173,21.173,0,0,1-.058-5.853,16.23,16.23,0,0,1,4.22-8.286,15.929,15.929,0,0,1,11.8-5.113Zm.258,5.41a11.005,11.005,0,0,1,2.129.2,10.987,10.987,0,0,1,8.425,11.886,10.858,10.858,0,0,1-2.341,5.545,9.654,9.654,0,0,1-2.5,2.214,4.008,4.008,0,0,1-.092-1.161V27.877l.8-.955a8.769,8.769,0,0,0-.493-11.982,8.371,8.371,0,0,0-4.667-2.4,5.978,5.978,0,0,0-2.788-.015,8.47,8.47,0,0,0-4.836,2.418,8.747,8.747,0,0,0-.508,11.979l.8.955v1.171a3.07,3.07,0,0,1-.116,1.171,5.783,5.783,0,0,1-.986-.693l-.065-.021a11.565,11.565,0,0,1-3.6-5.77,12.763,12.763,0,0,1,.015-5.237,11.3,11.3,0,0,1,7.331-7.737,11.558,11.558,0,0,1,3.492-.406Zm-.25,5.756a3.623,3.623,0,0,1,1.625.343,4.177,4.177,0,0,1,2,2.424,3.742,3.742,0,0,1-5.237,4.339h-.029a3.582,3.582,0,0,1-2.125-3.408,3.775,3.775,0,0,1,2.141-3.359,3.649,3.649,0,0,1,1.625-.339Zm-.021,9.1c1.9-.008,3.284.672,3.793,1.867.381.893.239,3.719-.42,8.282-.447,3.188-.693,3.993-1.309,4.536a3.159,3.159,0,0,1-3.188.554H21.7c-1.378-.495-1.675-1.165-2.241-5.09-.656-4.563-.8-7.389-.42-8.282.5-1.186,1.875-1.86,3.793-1.867Z" fill="#e7e7e7"/></svg>