<svg xmlns="http://www.w3.org/2000/svg" width="51.669" height="45.928" viewBox="0 0 51.669 45.928"><path d="M25.835,21.713C23.495,17.162,17.124,8.682,11.2,4.5,5.524.494,3.361,1.188,1.942,1.831.3,2.57,0,5.093,0,6.574S.814,18.738,1.343,20.523c1.755,5.89,7.994,7.88,13.742,7.242.293-.043.592-.084.893-.121-.3.047-.594.086-.893.121C6.663,29.014-.818,32.082,8.993,43c10.792,11.174,14.79-2.4,16.842-9.275C27.886,40.607,30.248,53.688,42.483,43c9.186-9.275,2.523-13.989-5.9-15.238q-.448-.05-.893-.121c.3.037.6.078.893.121,5.748.639,11.987-1.352,13.742-7.242.53-1.783,1.343-12.465,1.343-13.946s-.3-4.007-1.942-4.749C48.309,1.186,46.145.492,40.47,4.5,34.545,8.684,28.175,17.164,25.835,21.713Z" transform="translate(0 -1.334)" fill="#e7e7e7"/></svg>