<svg xmlns="http://www.w3.org/2000/svg" width="46.205" height="46.036" viewBox="0 0 46.205 46.036"><path d="M17.521,45.569V30.206H12.758v-7.06h4.763V20.1C17.521,12.24,21.079,8.6,28.8,8.6a26.144,26.144,0,0,1,2.826.2,16.711,16.711,0,0,1,2.2.375v6.4q-.627-.058-1.257-.069-.705-.018-1.411-.017a7.111,7.111,0,0,0-3.225.595,3.246,3.246,0,0,0-1.307,1.2,6.417,6.417,0,0,0-.72,3.373v2.5h7.545L32.7,27.2l-.553,3.011H25.9V46.079a23.091,23.091,0,1,0-8.38-.51Z" transform="translate(0 -0.044)" fill="#e7e7e7"/></svg>