<svg xmlns="http://www.w3.org/2000/svg" width="46.205" height="46.205" viewBox="0 0 46.205 46.205"><path d="M23.1,0A23.1,23.1,0,1,0,46.2,23.1,23.17,23.17,0,0,0,23.1,0ZM33.732,33.383a1.376,1.376,0,0,1-1.966.462c-5.429-3.35-12.244-4.045-20.332-2.2a1.428,1.428,0,1,1-.691-2.77c8.779-1.966,16.4-1.155,22.409,2.541a1.387,1.387,0,0,1,.579,1.964ZM36.5,27.03a1.745,1.745,0,0,1-2.43.578C27.838,23.8,18.366,22.64,11.089,24.951A1.755,1.755,0,0,1,10.05,21.6c8.432-2.539,18.829-1.267,25.99,3.121a1.632,1.632,0,0,1,.464,2.31Zm.231-6.469c-7.395-4.389-19.755-4.852-26.8-2.655A2.121,2.121,0,0,1,8.663,13.86c8.2-2.426,21.716-1.964,30.266,3.121a2.234,2.234,0,0,1,.807,3,2.418,2.418,0,0,1-3,.578Z" fill="#e7e7e7"/></svg>